<svg width="56" height="27" viewBox="0 0 56 27" fill="none" xmlns="http://www.w3.org/2000/svg">
<path d="M14.207 26.0699L12.147 24.1946C4.83039 17.5599 0 13.1699 0 7.81387C0 3.42389 3.4381 0 7.81386 0C10.2859 0 12.6585 1.15077 14.207 2.95506C15.7556 1.15077 18.1282 0 20.6002 0C24.976 0 28.4141 3.42389 28.4141 7.81387C28.4141 13.1699 23.5837 17.5599 16.267 24.1946L14.207 26.0699Z" fill="white"/>
<path d="M36.296 15V10.014L35.261 10.257V9.375L36.782 8.7H37.493V15H36.296ZM38.5615 15V14.163C38.9455 13.845 39.3175 13.53 39.6775 13.218C40.0435 12.906 40.3675 12.597 40.6495 12.291C40.9375 11.985 41.1655 11.688 41.3335 11.4C41.5075 11.106 41.5945 10.821 41.5945 10.545C41.5945 10.287 41.5225 10.059 41.3785 9.861C41.2405 9.663 41.0095 9.564 40.6855 9.564C40.3555 9.564 40.1065 9.672 39.9385 9.888C39.7705 10.104 39.6865 10.365 39.6865 10.671H38.5705C38.5825 10.209 38.6845 9.825 38.8765 9.519C39.0685 9.207 39.3235 8.976 39.6415 8.826C39.9595 8.67 40.3165 8.592 40.7125 8.592C41.3545 8.592 41.8525 8.769 42.2065 9.123C42.5665 9.471 42.7465 9.924 42.7465 10.482C42.7465 10.83 42.6655 11.169 42.5035 11.499C42.3475 11.829 42.1405 12.147 41.8825 12.453C41.6245 12.759 41.3455 13.047 41.0455 13.317C40.7455 13.581 40.4545 13.827 40.1725 14.055H42.8995V15H38.5615ZM46 15.108C45.568 15.108 45.178 15.033 44.83 14.883C44.482 14.727 44.203 14.508 43.993 14.226C43.789 13.944 43.687 13.617 43.687 13.245C43.687 12.861 43.786 12.525 43.984 12.237C44.188 11.949 44.455 11.742 44.785 11.616C44.497 11.49 44.269 11.31 44.101 11.076C43.933 10.836 43.849 10.569 43.849 10.275C43.849 9.975 43.93 9.699 44.092 9.447C44.254 9.189 44.494 8.982 44.812 8.826C45.136 8.67 45.532 8.592 46 8.592C46.468 8.592 46.861 8.67 47.179 8.826C47.497 8.982 47.737 9.189 47.899 9.447C48.061 9.699 48.142 9.975 48.142 10.275C48.142 10.563 48.055 10.83 47.881 11.076C47.713 11.316 47.488 11.496 47.206 11.616C47.542 11.742 47.809 11.949 48.007 12.237C48.205 12.525 48.304 12.861 48.304 13.245C48.304 13.617 48.202 13.944 47.998 14.226C47.794 14.508 47.515 14.727 47.161 14.883C46.813 15.033 46.426 15.108 46 15.108ZM46 11.274C46.312 11.274 46.558 11.193 46.738 11.031C46.918 10.869 47.008 10.662 47.008 10.41C47.008 10.134 46.918 9.918 46.738 9.762C46.564 9.606 46.318 9.528 46 9.528C45.676 9.528 45.427 9.606 45.253 9.762C45.079 9.918 44.992 10.134 44.992 10.41C44.992 10.668 45.079 10.878 45.253 11.04C45.433 11.196 45.682 11.274 46 11.274ZM46 14.145C46.384 14.145 46.675 14.052 46.873 13.866C47.071 13.674 47.17 13.434 47.17 13.146C47.17 12.828 47.065 12.579 46.855 12.399C46.651 12.219 46.366 12.129 46 12.129C45.634 12.129 45.343 12.219 45.127 12.399C44.917 12.579 44.812 12.828 44.812 13.146C44.812 13.434 44.911 13.674 45.109 13.866C45.313 14.052 45.61 14.145 46 14.145ZM52.0202 15.108C51.4382 15.108 50.9402 14.973 50.5262 14.703C50.1122 14.427 49.7912 14.046 49.5632 13.56C49.3412 13.068 49.2302 12.498 49.2302 11.85C49.2302 11.208 49.3412 10.641 49.5632 10.149C49.7912 9.657 50.1122 9.276 50.5262 9.006C50.9402 8.73 51.4382 8.592 52.0202 8.592C52.6022 8.592 53.1002 8.73 53.5142 9.006C53.9282 9.276 54.2462 9.657 54.4682 10.149C54.6962 10.641 54.8102 11.208 54.8102 11.85C54.8102 12.498 54.6962 13.068 54.4682 13.56C54.2462 14.046 53.9282 14.427 53.5142 14.703C53.1002 14.973 52.6022 15.108 52.0202 15.108ZM52.0202 14.073C52.4942 14.073 52.8812 13.875 53.1812 13.479C53.4812 13.083 53.6312 12.54 53.6312 11.85C53.6312 11.16 53.4812 10.617 53.1812 10.221C52.8812 9.825 52.4942 9.627 52.0202 9.627C51.5402 9.627 51.1502 9.825 50.8502 10.221C50.5562 10.617 50.4092 11.16 50.4092 11.85C50.4092 12.54 50.5562 13.083 50.8502 13.479C51.1502 13.875 51.5402 14.073 52.0202 14.073Z" fill="white"/>
</svg>
